<svg width="50" height="36" viewBox="0 0 50 36" fill="none" xmlns="http://www.w3.org/2000/svg">
<path d="M8.41003 11.9859H3.73567C3.50362 11.9781 3.31799 11.7874 3.31799 11.5553V3.20951C3.31799 2.96974 3.12462 2.77637 2.88484 2.77637H1.3018C1.06202 2.77637 0.868652 2.96974 0.868652 3.20951V13.6153C0.868652 13.8551 1.06202 14.0485 1.3018 14.0485H2.88484C2.90031 14.0485 2.91836 14.0459 2.93383 14.0433H8.40745C8.64723 14.0433 8.8406 13.8499 8.8406 13.6102V12.4164C8.84318 12.1792 8.64981 11.9859 8.41003 11.9859Z" fill="#FAFAFA"/>
<path d="M21.0644 6.50188C20.2032 5.70004 19.4195 5.67942 18.8161 5.68457C17.9808 5.68457 17.2279 6.03521 16.6917 6.5947V6.58438C16.653 6.63079 16.5988 6.65915 16.5344 6.65915C16.421 6.65915 16.3281 6.56634 16.3281 6.45289V6.33171C16.3281 6.09194 16.1348 5.89857 15.895 5.89857H14.544C14.3042 5.89857 14.1108 6.09194 14.1108 6.33171V13.6127C14.1108 13.8525 14.3042 14.0458 14.544 14.0458H15.895C16.1348 14.0458 16.3281 13.8525 16.3281 13.6127V10.1321C16.3307 9.84587 16.372 8.28345 17.0346 7.72655C17.558 7.28567 19.5329 6.90409 19.5329 9.35858V11.465V13.6127C19.5329 13.8525 19.7263 14.0458 19.966 14.0458H21.317C21.5568 14.0458 21.7502 13.8525 21.7502 13.6127V8.72175C21.7528 7.8864 21.5981 7.02784 21.0644 6.50188Z" fill="#FAFAFA"/>
<path d="M31.3465 12.8991V6.34515C31.3465 6.10537 31.1531 5.91201 30.9133 5.91201H29.6629C29.4231 5.91201 29.2297 6.10537 29.2297 6.34515V6.40961C29.2272 6.52047 29.1369 6.61071 29.0261 6.61071C28.9564 6.61071 28.8585 6.53594 28.8585 6.53594C28.2629 5.99709 27.5152 5.6748 26.7031 5.6748C24.7668 5.6748 23.1992 7.49763 23.1992 9.74328C23.1992 11.9915 24.7694 13.8118 26.7031 13.8118C27.5358 13.8118 28.299 13.474 28.8997 12.912V12.9171C28.9358 12.8887 28.9797 12.8733 29.0261 12.8733C29.1395 12.8733 29.2323 12.9661 29.2323 13.0795V13.6158H29.2297C29.2349 13.6674 29.2323 13.7834 29.2323 13.835C29.2323 14.8688 28.3995 15.6449 27.3657 15.6449C26.6876 15.6449 26.0972 15.2839 25.7672 14.7451V14.7502C25.695 14.6239 25.5609 14.5362 25.4036 14.5362H25.2438V14.5337H24.099V14.5362H24.0139C23.7819 14.5362 23.5963 14.7219 23.5963 14.9539C23.5963 15.021 23.6143 15.0828 23.6401 15.137H23.6375C24.3285 16.4158 25.6898 17.2847 27.26 17.2847C29.3483 17.2847 31.0706 15.7454 31.331 13.7525C31.3413 13.7138 31.3491 13.6751 31.3491 13.6364V13.5875C31.3594 13.4689 31.3671 13.3503 31.3671 13.2291C31.3645 13.1182 31.3568 13.0073 31.3465 12.8991ZM27.3528 12.1179C27.26 12.1179 27.1671 12.1101 27.0795 12.0972C27.0743 12.0972 27.0717 12.0972 27.064 12.0972C26.8861 12.0972 26.7237 12.172 26.6102 12.2932L25.8961 13.0976C25.86 13.1517 25.7955 13.1904 25.7259 13.1904C25.6125 13.1904 25.5196 13.0976 25.5196 12.9841C25.5196 12.9635 25.5248 12.9429 25.53 12.9248L25.9012 11.7749C25.9167 11.7208 25.927 11.6615 25.927 11.5996C25.927 11.4913 25.909 11.3882 25.86 11.298C25.6279 10.9138 25.4835 10.3853 25.4707 9.68656C25.5119 8.11899 26.3137 7.31199 27.3528 7.31199C28.4305 7.31199 29.1833 8.21696 29.2323 9.56281V9.85157C29.1833 11.1665 28.5156 12.1179 27.3528 12.1179Z" fill="#FAFAFA"/>
<path d="M36.9671 5.68722C36.962 5.68722 36.9594 5.68722 36.9542 5.68722C34.7086 5.68722 32.8677 7.35792 32.8884 9.90266C32.8884 12.5299 34.6777 14.345 37.3204 14.3244C37.3255 14.3244 37.3281 14.3244 37.3333 14.3244C39.5789 14.3244 41.3038 12.6098 41.3991 10.2585C41.4043 7.35792 39.6408 5.61503 36.9671 5.68722ZM38.6275 12.0684L39.0143 13.2131C39.0194 13.2312 39.0246 13.2518 39.0246 13.2724C39.0272 13.3859 38.9369 13.4787 38.8235 13.4813C38.7513 13.4813 38.6894 13.4477 38.6507 13.391L37.9237 12.5969C37.8077 12.4783 37.6452 12.4036 37.4673 12.4087C37.4622 12.4087 37.457 12.4087 37.4519 12.4087C37.3616 12.4216 37.2714 12.4319 37.1786 12.4319C35.9745 12.45 35.2861 11.4419 35.2603 10.0599C35.2346 8.63158 35.99 7.64669 37.1089 7.63122C38.148 7.61575 38.9627 8.41243 39.0246 9.97742C39.022 10.6761 38.8879 11.2072 38.6611 11.594C38.6146 11.6842 38.5992 11.7874 38.5992 11.8956C38.6018 11.9549 38.6121 12.0142 38.6275 12.0684Z" fill="#FAFAFA"/>
<path d="M11.8833 14.0491H10.5323C10.2925 14.0491 10.0991 13.8558 10.0991 13.616V6.335C10.0991 6.09522 10.2925 5.90186 10.5323 5.90186H11.8833C12.123 5.90186 12.3164 6.09522 12.3164 6.335V13.616C12.3164 13.8558 12.123 14.0491 11.8833 14.0491Z" fill="#FAFAFA"/>
<path d="M13.5025 0.0979738C13.4664 0.0412523 13.4045 0 13.3298 0C13.3194 0 13.3091 0.0025788 13.2988 0.0025788C12.35 0.219152 11.5044 0.855979 11.0635 1.80735C10.6226 2.75615 10.6819 3.8055 11.1253 4.66921C11.1614 4.73109 11.2259 4.77492 11.3032 4.77492C11.3187 4.77492 11.3316 4.77234 11.3471 4.76976C12.2907 4.55061 13.1286 3.91636 13.567 2.96757C14.0104 2.01619 13.9511 0.961687 13.5025 0.0979738Z" fill="#FAFAFA"/>
<path d="M8.79699 21.7783H0.433146C0.193369 21.7783 0 21.9717 0 22.2115V23.4052C0 23.645 0.193369 23.8383 0.433146 23.8383H2.97272C3.20219 23.8383 3.3904 24.024 3.3904 24.256V32.6095C3.3904 32.8493 3.58377 33.0427 3.82354 33.0427H5.41175C5.65152 33.0427 5.84489 32.8493 5.84489 32.6095V24.256C5.84489 24.0266 6.03053 23.8383 6.26257 23.8383H8.79957C9.03935 23.8383 9.23271 23.645 9.23271 23.4052V22.2115C9.23014 21.9743 9.03677 21.7783 8.79699 21.7783Z" fill="#FAFAFA"/>
<path d="M17.9474 27.4322C17.8546 25.9007 16.5835 24.689 15.0288 24.689C14.1883 24.689 13.4303 25.0448 12.8966 25.612C12.8605 25.6481 12.8089 25.6713 12.7522 25.6713C12.6388 25.6713 12.546 25.5785 12.546 25.465V22.2242C12.546 21.9844 12.3526 21.791 12.1128 21.791H10.7515C10.5117 21.791 10.3184 21.9844 10.3184 22.2242V32.6093C10.3184 32.8491 10.5117 33.0425 10.7515 33.0425H12.1128C12.3526 33.0425 12.546 32.8491 12.546 32.6093V28.4274C12.546 27.2595 12.9533 26.5659 14.2038 26.4267C15.4981 26.4267 15.7043 27.244 15.7301 28.5434V32.7305C15.7301 32.9033 15.8693 33.0425 16.0421 33.0425H17.6457C17.8185 33.0425 17.9577 32.9033 17.9577 32.7305V27.525C17.9629 27.4915 17.9551 27.4606 17.9474 27.4322Z" fill="#FAFAFA"/>
<path d="M26.5275 24.8696L25.1017 24.8618C24.8955 24.8618 24.7485 25.0114 24.7047 25.1609L23.1603 29.8069C23.1294 29.8791 23.0572 29.9281 22.9747 29.9281C22.8767 29.9281 22.7968 29.861 22.7761 29.7708L21.2447 25.1764C21.2008 25.0242 21.0513 24.8696 20.845 24.8696H19.4167C19.0531 24.885 18.9552 25.2382 19.0248 25.429L21.7087 32.6868C21.7397 32.777 21.7655 32.8802 21.7629 32.9936C21.7577 33.5686 21.2962 34.0352 20.7213 34.0352H19.9968C19.757 34.0352 19.5636 34.2286 19.5636 34.4684V35.4481C19.5636 35.6879 19.757 35.8813 19.9968 35.8813H21.2627C21.9563 35.8813 22.9025 35.479 23.2067 34.9969C23.2093 34.9943 23.2119 34.9918 23.2144 34.9866C23.6063 34.4916 24.2148 32.7409 24.2148 32.7409L26.922 25.4213C26.9916 25.2357 26.891 24.8876 26.5275 24.8696Z" fill="#FAFAFA"/>
<path d="M39.8597 25.7955C39.8571 25.7955 39.8571 25.7955 39.8597 25.7955C39.7771 25.6924 39.6895 25.597 39.5967 25.5068C39.5941 25.5042 39.5915 25.5016 39.5864 25.4964C39.4935 25.4088 39.3956 25.3263 39.2924 25.2515C39.2873 25.2489 39.2847 25.2464 39.2795 25.2438C39.2331 25.2103 39.1842 25.1767 39.1352 25.1458C39.13 25.1406 39.1223 25.1381 39.1171 25.1329C39.063 25.0994 39.0088 25.0685 38.9521 25.0375C38.9521 25.0375 38.9495 25.0375 38.9495 25.0349C38.898 25.0066 38.8438 24.9808 38.7897 24.955C38.7794 24.9499 38.7665 24.9447 38.7562 24.9395C38.702 24.9163 38.6479 24.8931 38.5937 24.8725C38.5912 24.8725 38.5886 24.8699 38.5886 24.8699C38.5319 24.8493 38.4726 24.8287 38.4133 24.8132C38.4004 24.8081 38.3849 24.8055 38.372 24.8003C38.323 24.7874 38.2766 24.7745 38.225 24.7642C38.2122 24.7616 38.1993 24.7591 38.1864 24.7565C38.1271 24.7436 38.0678 24.7333 38.0059 24.723C37.993 24.7204 37.9827 24.7204 37.9698 24.7178C37.9182 24.7101 37.8692 24.7049 37.8177 24.7023C37.7996 24.6998 37.7842 24.6998 37.7661 24.6972C37.7042 24.692 37.6398 24.6895 37.5779 24.6895C37.5289 24.6895 37.4774 24.6895 37.4284 24.692C37.3304 24.6972 37.2324 24.7075 37.1344 24.723C36.7967 24.7745 36.4796 24.8828 36.1908 25.0401C35.8221 25.2412 35.5024 25.5197 35.2497 25.8548C35.2111 25.9038 35.1518 25.9347 35.0847 25.9347C35.0177 25.9347 34.9558 25.9012 34.9197 25.8522C34.3886 25.1458 33.5455 24.6895 32.5941 24.6895C31.7975 24.6895 31.0781 25.0092 30.5522 25.5274V25.5222C30.5161 25.5583 30.4671 25.5789 30.4104 25.5789C30.2969 25.5789 30.2041 25.4861 30.2041 25.3727V25.2386C30.2041 25.0324 30.0391 24.8674 29.8328 24.8674H28.3581C28.1518 24.8674 27.9868 25.0324 27.9868 25.2386V32.6666C27.9868 32.8728 28.1518 33.0378 28.3581 33.0378H29.8328C30.0391 33.0378 30.2041 32.8728 30.2041 32.6666V28.2474C30.2041 27.2445 30.8564 26.4324 31.6608 26.4324C32.4652 26.4324 33.1175 27.2445 33.1175 28.2474V32.6666C33.1175 32.8728 33.2825 33.0378 33.4888 33.0378H34.9636C35.1698 33.0378 35.3348 32.8728 35.3348 32.6666V28.2371C35.34 27.2393 35.9897 26.4324 36.7915 26.4324C37.5934 26.4324 38.2457 27.2419 38.2482 28.2423V32.6666C38.2482 32.8728 38.4133 33.0378 38.6195 33.0378H40.0943C40.3005 33.0378 40.4655 32.8728 40.4655 32.6666V28.8018V27.9716V27.4018V27.2393C40.3985 26.7005 40.1819 26.2029 39.8597 25.7955Z" fill="#FAFAFA"/>
<path d="M48.5253 25.5578C47.8266 25.0035 46.9552 24.6709 46.0064 24.6709C43.7195 24.6709 41.8657 26.5943 41.8657 28.9663C41.8657 31.3382 43.7195 33.2616 46.0064 33.2616C47.5198 33.2616 48.8425 32.4185 49.5644 31.1629H49.5618C49.6211 31.0598 49.6443 30.9309 49.5824 30.7891C49.5154 30.6344 49.353 30.5416 49.1854 30.5416H49.0874H48.2546H48.1747H48.167H48.1283C47.9865 30.5416 47.8627 30.6138 47.788 30.722H47.7854C47.4141 31.2661 46.7902 31.6244 46.0837 31.6244C44.7817 31.6244 44.1475 30.7478 44.1475 29.9125C44.1475 29.9022 44.1475 29.8919 44.1475 29.8815H44.1501C44.1655 29.665 44.3434 29.4948 44.5651 29.4948H49.585C49.7784 29.4948 49.9382 29.3633 49.9872 29.1854C49.9872 29.1828 49.9872 29.1828 49.9872 29.1803C49.9949 29.0745 50.0001 28.9714 50.0001 28.8631C49.9949 27.5173 49.42 26.3236 48.5253 25.5578ZM47.244 28.1077C47.2414 28.1077 47.2388 28.1077 47.2388 28.1077H44.6219C44.6193 28.1077 44.6167 28.1077 44.6141 28.1077C44.3847 28.1077 44.1965 27.9221 44.1965 27.69C44.1965 27.6462 44.2042 27.6049 44.2171 27.5663C44.4594 26.8495 45.1349 26.3339 45.9316 26.3339C46.7206 26.3339 47.3909 26.8418 47.6384 27.5482L47.6358 27.5508C47.6513 27.5946 47.6616 27.6436 47.6616 27.6926C47.6616 27.9221 47.4734 28.1077 47.244 28.1077Z" fill="#FAFAFA"/>
</svg>
