<svg width="30" height="30" viewBox="0 0 30 30" fill="none" xmlns="http://www.w3.org/2000/svg">
<path d="M7 9C8.10457 9 9 8.10457 9 7V5L5 9H7Z" fill="#FAFAFA" stroke="#FAFAFA" stroke-width="2" stroke-linecap="round" stroke-linejoin="round"/>
<path fill-rule="evenodd" clip-rule="evenodd" d="M7.70711 4.87868C8.06977 4.51602 8.51572 4.2558 9 4.11664V4H9.82843H10H23C24.6569 4 26 5.34315 26 7V23C26 24.6569 24.6569 26 23 26H7C5.34315 26 4 24.6569 4 23V10V9.82843V9H4.11664C4.2558 8.51572 4.51602 8.06977 4.87868 7.70711L7.70711 4.87868ZM9.82843 6C9.56321 6 9.30886 6.10536 9.12132 6.29289L6.29289 9.12132C6.10536 9.30886 6 9.56321 6 9.82843V23C6 23.5523 6.44772 24 7 24H23C23.5523 24 24 23.5523 24 23V7C24 6.44772 23.5523 6 23 6H9.82843Z" fill="#FAFAFA"/>
</svg>
