<svg width="30" height="30" viewBox="0 0 30 30" fill="none" xmlns="http://www.w3.org/2000/svg">
<path d="M12 23H18C18 24.6569 16.6569 26 15 26C13.3431 26 12 24.6569 12 23Z" fill="#999999"/>
<path fill-rule="evenodd" clip-rule="evenodd" d="M13 5C13 3.89543 13.8954 3 15 3C16.1046 3 17 3.89543 17 5C17 5.08402 16.9948 5.16683 16.9848 5.24813C20.4429 6.1309 23 9.26683 23 13V16C24.6569 16 26 17.3431 26 19C26 20.6569 24.6569 22 23 22H7C5.34315 22 4 20.6569 4 19C4 17.3431 5.34315 16 7 16V13C7 9.26683 9.55706 6.1309 13.0152 5.24813C13.0052 5.16683 13 5.08402 13 5ZM15 7C11.6863 7 9 9.68629 9 13V18H7C6.44772 18 6 18.4477 6 19C6 19.5523 6.44772 20 7 20H23C23.5523 20 24 19.5523 24 19C24 18.4477 23.5523 18 23 18H21V13C21 9.68629 18.3137 7 15 7Z" fill="#999999"/>
</svg>
